<svg width="387" height="94" viewBox="0 0 387 94" fill="none" xmlns="http://www.w3.org/2000/svg">
<path d="M21.5625 64.625C23.4115 64.625 24.8438 64.1302 25.8594 63.1406C26.875 62.125 27.3698 60.7188 27.3438 58.9219H39.6875C39.6875 63.5573 38.0208 67.3594 34.6875 70.3281C31.3802 73.2969 27.1094 74.7812 21.875 74.7812C15.7292 74.7812 10.8854 72.8542 7.34375 69C3.80208 65.1458 2.03125 59.8073 2.03125 52.9844V52.4375C2.03125 48.1667 2.8125 44.4036 4.375 41.1484C5.96354 37.8672 8.24219 35.3542 11.2109 33.6094C14.1797 31.8385 17.6953 30.9531 21.7578 30.9531C27.2526 30.9531 31.6146 32.4766 34.8438 35.5234C38.0729 38.5703 39.6875 42.6979 39.6875 47.9062H27.3438C27.3438 45.7188 26.8099 44.0391 25.7422 42.8672C24.6745 41.6953 23.2422 41.1094 21.4453 41.1094C18.0339 41.1094 16.0417 43.2839 15.4688 47.6328C15.2865 49.013 15.1953 50.9141 15.1953 53.3359C15.1953 57.5807 15.7031 60.5234 16.7188 62.1641C17.7344 63.8047 19.349 64.625 21.5625 64.625ZM43.5938 52.4766C43.5938 48.2578 44.4141 44.5078 46.0547 41.2266C47.6953 37.9193 50.0521 35.3802 53.125 33.6094C56.1979 31.8385 59.8047 30.9531 63.9453 30.9531C70.2734 30.9531 75.2604 32.9193 78.9062 36.8516C82.5521 40.7578 84.375 46.0833 84.375 52.8281V53.2969C84.375 59.8854 82.5391 65.1198 78.8672 69C75.2214 72.8542 70.2734 74.7812 64.0234 74.7812C58.0078 74.7812 53.1771 72.9844 49.5312 69.3906C45.8854 65.7708 43.9193 60.875 43.6328 54.7031L43.5938 52.4766ZM56.7578 53.2969C56.7578 57.2031 57.3698 60.0677 58.5938 61.8906C59.8177 63.7135 61.6276 64.625 64.0234 64.625C68.7109 64.625 71.1068 61.0182 71.2109 53.8047V52.4766C71.2109 44.8984 68.7891 41.1094 63.9453 41.1094C59.5443 41.1094 57.1615 44.3776 56.7969 50.9141L56.7578 53.2969ZM88.5156 52.5547C88.5156 45.862 89.9609 40.5885 92.8516 36.7344C95.7422 32.8802 99.7786 30.9531 104.961 30.9531C108.737 30.9531 111.914 32.4375 114.492 35.4062V14H127.695V74H115.859L115.195 69.4688C112.487 73.0104 109.049 74.7812 104.883 74.7812C99.8568 74.7812 95.8724 72.8542 92.9297 69C89.987 65.1458 88.5156 59.6641 88.5156 52.5547ZM101.68 53.375C101.68 60.875 103.867 64.625 108.242 64.625C111.159 64.625 113.242 63.401 114.492 60.9531V44.8594C113.294 42.3594 111.237 41.1094 108.32 41.1094C104.258 41.1094 102.057 44.3906 101.719 50.9531L101.68 53.375ZM155.625 74.7812C149.141 74.7812 143.893 72.8542 139.883 69C135.872 65.1198 133.867 60.0807 133.867 53.8828V52.7891C133.867 48.4661 134.661 44.651 136.25 41.3438C137.865 38.0365 140.208 35.4844 143.281 33.6875C146.354 31.8646 150 30.9531 154.219 30.9531C160.156 30.9531 164.844 32.8021 168.281 36.5C171.719 40.1719 173.438 45.3021 173.438 51.8906V57.0078H147.266C147.734 59.3776 148.763 61.2396 150.352 62.5938C151.94 63.9479 153.997 64.625 156.523 64.625C160.69 64.625 163.945 63.1667 166.289 60.25L172.305 67.3594C170.664 69.625 168.333 71.4349 165.312 72.7891C162.318 74.1172 159.089 74.7812 155.625 74.7812ZM154.141 41.1094C150.286 41.1094 147.995 43.6615 147.266 48.7656H160.547V47.75C160.599 45.6406 160.065 44.013 158.945 42.8672C157.826 41.6953 156.224 41.1094 154.141 41.1094Z" fill="black"/>
<path d="M197.719 70.8359C200.974 70.8359 203.695 69.9245 205.883 68.1016C208.096 66.2526 209.294 63.8698 209.477 60.9531H213.969C213.839 63.5312 213.031 65.888 211.547 68.0234C210.062 70.1328 208.083 71.7865 205.609 72.9844C203.161 74.1823 200.531 74.7812 197.719 74.7812C192.172 74.7812 187.771 72.8542 184.516 69C181.286 65.1458 179.672 59.9635 179.672 53.4531V52.0469C179.672 47.8802 180.401 44.1953 181.859 40.9922C183.318 37.7891 185.401 35.3151 188.109 33.5703C190.844 31.8255 194.034 30.9531 197.68 30.9531C202.315 30.9531 206.13 32.3333 209.125 35.0938C212.146 37.8542 213.76 41.487 213.969 45.9922H209.477C209.268 42.6849 208.07 40.0156 205.883 37.9844C203.721 35.9531 200.987 34.9375 197.68 34.9375C193.461 34.9375 190.18 36.4609 187.836 39.5078C185.518 42.5547 184.359 46.8255 184.359 52.3203V53.6875C184.359 59.0781 185.518 63.2839 187.836 66.3047C190.18 69.3255 193.474 70.8359 197.719 70.8359ZM250.023 74C249.555 72.6719 249.255 70.7057 249.125 68.1016C247.484 70.237 245.388 71.8906 242.836 73.0625C240.31 74.2083 237.628 74.7812 234.789 74.7812C230.727 74.7812 227.432 73.6484 224.906 71.3828C222.406 69.1172 221.156 66.2526 221.156 62.7891C221.156 58.6745 222.862 55.4193 226.273 53.0234C229.711 50.6276 234.49 49.4297 240.609 49.4297H249.086V44.625C249.086 41.6042 248.148 39.2344 246.273 37.5156C244.424 35.7708 241.716 34.8984 238.148 34.8984C234.893 34.8984 232.198 35.7318 230.062 37.3984C227.927 39.0651 226.859 41.0703 226.859 43.4141L222.172 43.375C222.172 40.0156 223.734 37.112 226.859 34.6641C229.984 32.1901 233.826 30.9531 238.383 30.9531C243.096 30.9531 246.807 32.138 249.516 34.5078C252.25 36.8516 253.656 40.1328 253.734 44.3516V64.3516C253.734 68.4401 254.164 71.5 255.023 73.5312V74H250.023ZM235.336 70.6406C238.461 70.6406 241.247 69.8854 243.695 68.375C246.169 66.8646 247.966 64.8464 249.086 62.3203V53.0234H240.727C236.065 53.0755 232.419 53.9349 229.789 55.6016C227.159 57.2422 225.844 59.5078 225.844 62.3984C225.844 64.7682 226.716 66.7344 228.461 68.2969C230.232 69.8594 232.523 70.6406 235.336 70.6406ZM270.688 31.7344L270.844 38.9609C272.432 36.3568 274.411 34.3776 276.781 33.0234C279.151 31.6432 281.768 30.9531 284.633 30.9531C289.164 30.9531 292.536 32.2292 294.75 34.7812C296.964 37.3333 298.083 41.1615 298.109 46.2656V74H293.461V46.2266C293.435 42.4505 292.628 39.638 291.039 37.7891C289.477 35.9401 286.964 35.0156 283.5 35.0156C280.609 35.0156 278.044 35.9271 275.805 37.75C273.591 39.5469 271.951 41.9818 270.883 45.0547V74H266.234V31.7344H270.688ZM308.344 52.4766C308.344 45.9141 309.802 40.6927 312.719 36.8125C315.661 32.9062 319.646 30.9531 324.672 30.9531C330.375 30.9531 334.724 33.2057 337.719 37.7109V14H342.367V74H337.992L337.797 68.375C334.802 72.6458 330.401 74.7812 324.594 74.7812C319.724 74.7812 315.792 72.8281 312.797 68.9219C309.828 64.9896 308.344 59.6901 308.344 53.0234V52.4766ZM313.07 53.2969C313.07 58.6875 314.151 62.9453 316.312 66.0703C318.474 69.1693 321.521 70.7188 325.453 70.7188C331.208 70.7188 335.297 68.1797 337.719 63.1016V43.2578C335.297 37.763 331.234 35.0156 325.531 35.0156C321.599 35.0156 318.539 36.5651 316.352 39.6641C314.164 42.737 313.07 47.2812 313.07 53.2969ZM368.07 67.2812L380.414 31.7344H385.453L367.406 81.1875L366.469 83.375C364.151 88.5052 360.57 91.0703 355.727 91.0703C354.607 91.0703 353.409 90.888 352.133 90.5234L352.094 86.6562L354.516 86.8906C356.807 86.8906 358.656 86.3177 360.062 85.1719C361.495 84.0521 362.706 82.112 363.695 79.3516L365.766 73.6484L349.828 31.7344H354.945L368.07 67.2812Z" fill="#444444"/>
<rect x="9" y="84" width="160" height="5" fill="black"/>
</svg>
