<svg width="160" height="160" viewBox="0 0 160 160" fill="none" xmlns="http://www.w3.org/2000/svg">
<rect x="10" y="10" width="140" height="140" stroke="#CCCCCC" stroke-width="20"/>
<path d="M105.186 22.7934L105.186 22.7934C108.16 20.5803 112.414 21.2826 114.625 24.3385L114.625 24.3387C115.814 25.9817 116.955 26.9747 118.172 27.5658C119.313 28.1195 120.417 28.2603 121.333 28.3772C121.373 28.3822 121.412 28.3873 121.452 28.3923C122.414 28.5159 123.274 28.638 124.271 29.0666C125.267 29.4942 126.482 30.2661 128.005 31.7921C129.528 33.3183 130.299 34.5357 130.727 35.534C131.155 36.5345 131.277 37.3969 131.4 38.361C131.405 38.4003 131.41 38.44 131.415 38.48C131.532 39.3978 131.673 40.5028 132.225 41.6443C132.814 42.8631 133.805 44.0062 135.445 45.1977L135.445 45.1978C138.495 47.4126 139.199 51.6788 136.988 54.6619L136.988 54.662C134.112 58.5417 128.51 62.7486 117.435 63.3324L96.5301 42.389C97.1123 31.2887 101.313 25.6743 105.186 22.7934Z" fill="#FECD38" stroke="#BA6E13" stroke-width="3"/>
<path d="M109.557 52.0743C109.099 52.0743 108.64 51.8991 108.29 51.5486C107.59 50.8468 107.59 49.7102 108.29 49.0084L118.728 38.5512C119.428 37.8503 120.563 37.8503 121.263 38.5512C121.963 39.253 121.963 40.3897 121.263 41.0906L110.825 51.5486C110.475 51.8991 110.016 52.0743 109.557 52.0743Z" fill="#BA6E13"/>
<path d="M100.506 50.2894C100.371 50.2894 100.235 50.274 100.098 50.2422C99.134 50.0179 98.534 49.0528 98.7588 48.0868C101.308 37.1004 106.802 31.9517 107.034 31.7384C107.764 31.0684 108.897 31.1165 109.567 31.8473C110.235 32.5773 110.188 33.7103 109.462 34.3813C109.374 34.4639 104.521 39.1132 102.25 48.8994C102.057 49.7292 101.321 50.2894 100.506 50.2894Z" fill="#BA6E13"/>
<path d="M111.338 61.1451C110.523 61.1451 109.786 60.584 109.593 59.7551C109.37 58.7891 109.969 57.824 110.934 57.5998C120.742 55.3155 125.381 50.4229 125.426 50.3739C126.099 49.6503 127.232 49.6049 127.957 50.2767C128.682 50.9476 128.731 52.0771 128.063 52.8061C127.85 53.0394 122.711 58.544 111.745 61.0979C111.609 61.1297 111.472 61.1451 111.338 61.1451Z" fill="#BA6E13"/>
<path d="M23.792 104.338L23.7921 104.338C26.6676 100.458 32.2699 96.2514 43.3449 95.6677L64.2495 116.611C63.6674 127.711 59.4665 133.326 55.5941 136.207L55.5939 136.207C52.6198 138.42 48.3657 137.717 46.155 134.662L46.1548 134.661C44.9659 133.018 43.8248 132.026 42.6074 131.435C41.4671 130.881 40.363 130.74 39.4469 130.623C39.4069 130.618 39.3673 130.613 39.3281 130.608C38.3659 130.484 37.5059 130.362 36.5082 129.934C35.5125 129.506 34.2976 128.734 32.7742 127.208C31.2511 125.682 30.4803 124.464 30.0531 123.466C29.625 122.466 29.503 121.603 29.3796 120.639C29.3746 120.6 29.3696 120.56 29.3645 120.52C29.2479 119.602 29.1074 118.497 28.5552 117.356C27.9657 116.137 26.9748 114.994 25.3344 113.802L25.3342 113.802C22.2842 111.587 21.5805 107.321 23.792 104.338Z" fill="#FECD38" stroke="#BA6E13" stroke-width="3"/>
<path d="M40.7846 120.974C40.3261 120.974 39.8667 120.799 39.5169 120.449C38.8173 119.747 38.8173 118.61 39.5169 117.909L49.9546 107.452C50.6551 106.75 51.7897 106.75 52.4902 107.452C53.1898 108.153 53.1898 109.29 52.4902 109.992L42.0515 120.449C41.7017 120.799 41.2432 120.974 40.7846 120.974Z" fill="#BA6E13"/>
<path d="M34.037 109.204C33.6039 109.204 33.1698 109.047 32.8263 108.731C32.0959 108.061 32.047 106.925 32.7167 106.194C32.9296 105.961 38.0688 100.456 49.034 97.903C49.9982 97.6779 50.9615 98.2789 51.1862 99.2449C51.41 100.211 50.8101 101.176 49.8459 101.401C39.9492 103.706 35.4036 108.573 35.3583 108.622C35.0049 109.007 34.5219 109.204 34.037 109.204Z" fill="#BA6E13"/>
<path d="M52.5336 127.735C52.0497 127.735 51.5658 127.539 51.2124 127.153C50.5445 126.424 50.5925 125.29 51.3175 124.62C51.4063 124.536 56.2591 119.887 58.5291 110.101C58.7539 109.135 59.7172 108.534 60.6814 108.758C61.6456 108.983 62.2455 109.948 62.0217 110.914C59.4716 121.901 53.9781 127.048 53.7452 127.263C53.4009 127.578 52.9668 127.735 52.5336 127.735Z" fill="#BA6E13"/>
<path d="M56.6951 55.7613C56.0372 56.4213 55.4019 57.0941 54.7893 57.7759L49.4445 85.503L54.957 111.856C59.7227 115.182 65.4165 116.92 71.4328 117.129L80.611 97.8132L80.3083 60.1746L70.4296 46.0014C65.5542 48.3147 60.8718 51.5777 56.6951 55.7613Z" fill="#AC77E8"/>
<path d="M89.8018 41.8896L80.3074 60.1746L80.611 97.8131L91.5644 112.399C96.0021 110.135 100.258 107.073 104.085 103.239C105.976 101.344 107.678 99.3457 109.19 97.2711L113.47 69.8781L107.343 48.2857C102.406 44.3046 96.3029 42.1991 89.8018 41.8896Z" fill="#AC77E8"/>
<path d="M51.9301 108.016C40.3353 96.3996 41.2889 75.8768 53.9707 60.2745C54.0983 62.1002 54.2113 63.9375 54.3108 65.7856C55.0707 79.9355 54.9886 94.7455 54.0741 109.944C53.3314 109.345 52.6158 108.703 51.9301 108.016Z" fill="#FECD38" stroke="#BA6E13" stroke-width="2"/>
<path d="M109.107 97.3855C109.135 97.3474 109.162 97.3093 109.19 97.2711L113.47 69.8781L112.88 67.8018C112.632 75.9737 109.663 84.5869 104.12 92.1924C102.608 94.266 100.906 96.2643 99.0143 98.16C95.4474 101.733 91.5072 104.636 87.3957 106.849L91.5652 112.4C96.002 110.135 100.258 107.073 104.085 103.239C105.872 101.447 107.59 99.4573 109.107 97.3855Z" fill="#ee5253"/>
<path d="M107.473 48.7451L107.343 48.2866C107.286 48.2403 107.227 48.1967 107.169 48.1522C107.07 48.0732 106.968 47.997 106.867 47.9189C107.076 48.1904 107.276 48.4673 107.473 48.7451Z" fill="#905FA8"/>
<path d="M72.5134 116.15C73.8505 98.9924 74.0892 82.3088 73.2342 66.513L73.2342 66.5128C72.8644 59.7072 72.2893 53.066 71.5102 46.6023C77.2604 43.9891 83.2411 42.7277 88.9173 42.8589C89.8551 50.2918 90.534 57.9438 90.9554 65.7834C91.743 80.4998 91.6246 95.9272 90.6045 111.763C84.6706 114.699 78.4373 116.176 72.5134 116.15Z" fill="#FECD38" stroke="#BA6E13" stroke-width="2"/>
<path d="M109.558 50.2776C121.107 61.8487 120.554 81.6789 109.19 97.2711C109.518 86.7514 109.415 76.484 108.878 66.567C108.54 60.3307 108.028 54.2324 107.343 48.2866C108.112 48.9049 108.85 49.5694 109.558 50.2776Z" fill="#FECD38"/>
<path d="M109.558 50.2785C108.857 49.5749 108.117 48.9094 107.343 48.2866C107.356 48.3946 107.367 48.5036 107.38 48.6125C114.091 57.9657 114.594 70.9994 109.365 83.0535C109.395 87.7346 109.34 92.4756 109.19 97.2711C120.554 81.6799 121.107 61.8487 109.558 50.2785Z" fill="#BA6E13"/>
<path d="M71.4327 117.129L74.1079 111.499C71.4989 111.95 68.9017 112.137 66.3625 112.049C62.1594 111.904 58.1141 111.008 54.4322 109.35L54.9569 111.856C55.5522 112.271 56.1621 112.663 56.7856 113.029C60.2156 115.043 64.048 116.311 68.0861 116.85C69.188 116.996 70.3045 117.09 71.4327 117.129Z" fill="#ee5253"/>
<path d="M55.092 109.635C53.265 108.866 51.5206 107.916 49.8867 106.776C49.5396 106.533 49.1971 106.282 48.859 106.022C49.0385 106.256 49.2224 106.488 49.41 106.717C49.4118 106.719 49.4127 106.72 49.4145 106.722C50.8853 108.523 52.5899 110.133 54.4649 111.504C54.628 111.623 54.792 111.74 54.9569 111.856C55.005 111.114 55.0485 110.375 55.092 109.635Z" fill="#BA6E13"/>
<path d="M92.0328 104.002C90.2322 105.251 88.3808 106.358 86.4949 107.321C81.7156 109.759 76.7232 111.268 71.8224 111.824C71.7028 113.588 71.576 115.355 71.4328 117.129C75.5479 117.271 79.8161 116.698 84.0427 115.43C86.5792 114.669 89.1003 113.658 91.5652 112.4C91.7501 109.588 91.905 106.788 92.0328 104.002Z" fill="#BA6E13"/>
<ellipse cx="94.5" cy="125.5" rx="23.5" ry="3.5" fill="#C4C4C4"/>
<path fill-rule="evenodd" clip-rule="evenodd" d="M71.5986 160H140H160V140V71.5986L140 91.5986V140H91.5986L71.5986 160ZM70.1772 20H20V70.1772L0 90.1772V20V0H20H90.1772L70.1772 20Z" fill="#ee5253"/>
</svg>
