<svg width="456" height="89" viewBox="0 0 456 89" fill="none" xmlns="http://www.w3.org/2000/svg">
<path d="M0.24 36.16C0.24 43.92 3.44 50.96 8.24 56.08C13.12 61.2 20 64.4 27.6 64.4C40.64 64.4 50.88 55.76 54.08 43.04H46.16C43.28 51.52 36.08 56.4 27.6 56.4C22.24 56.4 17.36 54.08 13.84 50.4C10.32 46.72 8.08 41.76 8.08 36.16C8.08 30.4 10.32 25.44 13.84 21.76C17.36 18.08 22.24 15.76 27.6 15.76C35.84 15.76 42.72 20 45.68 28.4H53.68C50.48 15.76 40.4 7.76 27.6 7.76C20 7.76 13.12 11.04 8.24 16.08C3.44 21.2 0.24 28.24 0.24 36.16ZM105.517 36C105.517 41.76 103.197 46.8 99.5969 50.48C95.8369 54.24 90.6369 56.56 85.1169 56.56C79.5969 56.56 74.4769 54.24 70.7969 50.48C67.1169 46.8 64.7969 41.68 64.7969 36C64.7969 30.32 67.1169 25.2 70.7969 21.52C74.4769 17.76 79.5969 15.44 85.1169 15.44C90.6369 15.44 95.8369 17.76 99.5969 21.52C103.197 25.2 105.517 30.24 105.517 36ZM56.6369 36C56.6369 43.92 59.9169 51.04 64.9569 56.24C70.0769 61.52 77.2769 64.72 85.1169 64.72C93.0369 64.72 100.157 61.52 105.357 56.24C110.397 51.04 113.677 43.92 113.677 36C113.677 28.08 110.397 20.96 105.357 15.76C100.157 10.56 93.0369 7.28 85.1169 7.28C77.2769 7.28 70.0769 10.56 64.9569 15.76C59.9169 20.96 56.6369 28.08 56.6369 36ZM126.862 55.92V16.16H138.862C151.822 16.16 158.382 26.16 158.382 36.08C158.382 46 151.822 55.92 138.862 55.92H126.862ZM118.782 8.08V64H138.862C157.182 64 166.382 50.08 166.382 36.08C166.382 22.08 157.182 8.08 138.862 8.08H118.782ZM178.651 40.08H204.011V31.92H178.651V16.16H204.571V8.08H170.491V64H204.651V55.92H178.651V40.08Z" fill="black"/>
<path d="M267.64 25.12C266.28 21.84 264.28 18.88 261.88 16.4C256.92 11.28 250.12 8.16 242.52 8.16C234.92 8.16 228.12 11.28 223.16 16.4C218.28 21.44 215.16 28.4 215.16 36.08C215.16 43.84 218.28 50.8 223.16 55.84C228.12 60.96 234.92 64.08 242.52 64.08C250.12 64.08 256.92 60.96 261.88 55.84C264.28 53.36 266.28 50.4 267.64 47.12H266.28C265 50.08 263.16 52.64 261 54.88C256.28 59.76 249.72 62.8 242.52 62.8C235.32 62.8 228.76 59.76 224.04 54.88C219.32 50.08 216.36 43.44 216.36 36.08C216.36 28.8 219.32 22.16 224.04 17.28C228.76 12.4 235.32 9.44 242.52 9.44C249.72 9.44 256.28 12.4 261 17.28C263.16 19.52 265 22.16 266.28 25.12H267.64ZM292.534 8.88L306.214 44H278.934L292.534 8.88ZM314.374 64H315.734L293.254 7.2H291.894L269.414 64H270.774L278.374 45.2H306.694L314.374 64ZM321.165 64V10.56L358.125 64H359.405V8H358.205V61.76L321.005 8L319.885 7.92V64H321.165ZM368.036 62.8C368.036 45.44 368.036 26.64 368.036 9.28H385.716C420.836 9.28 420.836 62.8 385.716 62.8H368.036ZM366.836 8.08C366.836 26.72 366.836 45.36 366.836 64H385.716C422.436 64 422.436 8.08 385.716 8.08H366.836ZM412.226 8.08L432.786 40.88V64H434.066V40.88L454.626 8.08H453.106L433.426 39.6L413.746 8.08H412.226Z" fill="#444444"/>
<rect y="84" width="207" height="5" fill="black"/>
</svg>
