<?xml version="1.0" standalone="no"?>
<!DOCTYPE svg PUBLIC "-//W3C//DTD SVG 20010904//EN"
 "http://www.w3.org/TR/2001/REC-SVG-20010904/DTD/svg10.dtd">
<svg version="1.0" xmlns="http://www.w3.org/2000/svg"
 width="700.000000pt" height="700.000000pt" viewBox="0 0 700.000000 700.000000"
 preserveAspectRatio="xMidYMid meet">
<metadata>
Created by potrace 1.11, written by Peter Selinger 2001-2013
</metadata>
<g transform="translate(0.000000,700.000000) scale(0.100000,-0.100000)"
fill="#000000" stroke="none">
<path d="M0 5028 l0 -1973 435 435 435 435 2 1100 3 1100 1100 3 1100 2 435
435 435 435 -1973 0 -1972 0 0 -1972z"/>
<path d="M4665 6107 c-127 -42 -277 -198 -370 -385 -64 -130 -115 -330 -130
-506 l-7 -78 -36 6 c-347 58 -714 0 -1049 -165 -613 -303 -1046 -855 -1170
-1490 -14 -74 -18 -140 -17 -309 0 -119 5 -234 11 -257 l11 -42 -67 -6 c-262
-25 -489 -97 -646 -205 -73 -50 -175 -150 -212 -207 -59 -92 -77 -203 -48
-297 24 -79 57 -126 150 -211 98 -88 118 -123 135 -230 23 -148 65 -231 170
-335 105 -106 182 -144 340 -170 100 -17 140 -42 230 -140 111 -121 177 -155
300 -155 70 1 95 5 140 26 166 77 329 293 404 536 32 104 47 177 60 303 l11
105 30 -1 c17 0 80 -6 142 -12 426 -43 930 123 1323 437 92 74 263 243 333
331 139 173 269 400 341 592 100 269 138 575 102 818 -8 52 -13 97 -11 101 3
3 44 9 92 13 320 26 594 147 767 338 81 89 110 154 114 253 6 132 -45 234
-161 323 -71 55 -105 107 -123 190 -36 165 -46 198 -79 251 -61 101 -202 227
-292 262 -16 6 -72 19 -125 29 -54 11 -114 27 -133 36 -20 9 -72 56 -116 104
-108 119 -171 153 -289 157 -51 2 -101 -2 -125 -10z m200 -136 c22 -10 58 -38
80 -62 141 -155 194 -189 344 -214 119 -20 179 -51 262 -134 83 -83 114 -143
134 -262 25 -143 50 -188 165 -299 59 -56 105 -110 115 -132 21 -51 19 -135
-3 -180 -100 -195 -391 -348 -730 -384 l-64 -6 -39 38 c-21 21 -39 41 -39 44
0 4 38 21 85 40 146 56 370 197 425 267 42 54 10 133 -54 133 -23 0 -46 -12
-81 -43 -101 -88 -262 -180 -422 -240 l-42 -16 -26 44 c-14 25 -49 75 -76 112
l-50 66 235 236 c151 152 237 246 241 264 13 53 -48 107 -97 88 -13 -5 -126
-113 -253 -240 -126 -127 -233 -231 -237 -231 -4 0 -38 23 -75 51 -37 28 -85
60 -105 72 -21 11 -38 24 -38 29 0 17 50 139 89 217 46 92 102 178 161 246 47
54 52 95 18 132 -38 40 -77 31 -136 -31 -90 -95 -198 -277 -252 -424 l-23 -63
-43 42 c-42 41 -42 42 -37 98 9 96 49 273 82 356 43 113 95 196 174 281 109
117 211 151 312 105z m-1011 -933 c45 -336 84 -902 96 -1408 11 -474 -2 -1186
-23 -1229 -32 -66 -419 -227 -651 -270 l-48 -9 6 82 c57 725 42 1747 -36 2514
-18 183 -19 215 -7 223 8 4 68 26 134 48 165 55 332 87 467 90 l57 1 5 -42z
m930 -308 c150 -285 191 -634 116 -998 -20 -95 -97 -339 -110 -347 -4 -2 -10
132 -13 298 -7 301 -33 727 -62 1012 -8 83 -15 155 -15 160 1 18 38 -38 84
-125z m-2448 -707 c11 -261 9 -1434 -2 -1607 l-9 -130 -50 53 c-139 147 -237
344 -287 574 -31 148 -31 396 1 557 31 157 82 312 151 456 54 114 167 304 181
304 4 0 11 -93 15 -207z m-421 -1323 c35 -36 37 -40 19 -46 -69 -25 -123 -48
-186 -80 -160 -80 -338 -218 -338 -263 0 -53 53 -101 97 -87 11 3 48 31 83 61
86 72 197 137 331 193 107 44 111 45 122 26 6 -10 40 -61 75 -113 l64 -94
-236 -236 c-222 -223 -236 -239 -236 -274 0 -47 31 -77 79 -77 33 0 51 16 271
241 l235 241 52 -46 c28 -25 53 -46 56 -46 2 0 29 -15 60 -33 l55 -33 -33 -86
c-53 -142 -132 -275 -227 -386 -40 -45 -48 -83 -25 -113 15 -20 51 -39 72 -39
26 0 110 86 168 173 58 86 149 265 169 329 6 21 14 38 18 38 3 0 23 -18 44
-39 l38 -39 -7 -73 c-26 -255 -115 -475 -253 -620 -91 -97 -139 -124 -222
-124 -82 0 -139 31 -199 109 -87 113 -160 156 -314 185 -132 25 -186 53 -270
140 -82 85 -104 129 -128 259 -31 159 -51 191 -216 345 -136 127 -102 280 97
439 141 111 406 204 595 207 47 1 54 -2 90 -39z"/>
<path d="M6563 3428 l-433 -433 -2 -1060 -3 -1060 -1060 -3 -1060 -2 -435
-435 -435 -435 1933 0 1932 0 0 1930 c0 1062 -1 1930 -3 1930 -1 0 -197 -195
-434 -432z"/>
</g>
</svg>
