<svg width="399" height="76" viewBox="0 0 399 76" fill="none" xmlns="http://www.w3.org/2000/svg">
<path d="M41.68 48C39.9733 51.3067 37.5733 54.0267 34.48 56.16C31.44 58.24 27.6267 59.28 23.04 59.28C20 59.28 17.2 58.7733 14.64 57.76C12.1333 56.6933 9.94667 55.2267 8.08 53.36C6.26667 51.4933 4.82667 49.3067 3.76 46.8C2.74667 44.24 2.24 41.44 2.24 38.4C2.24 35.36 2.74667 32.56 3.76 30C4.82667 27.44 6.26667 25.2533 8.08 23.44C9.94667 21.5733 12.1333 20.1333 14.64 19.12C17.2 18.0533 20 17.52 23.04 17.52C27.5733 17.52 31.3867 18.56 34.48 20.64C37.5733 22.72 39.84 25.4133 41.28 28.72L31.68 32.72C30.7733 30.9067 29.6 29.5467 28.16 28.64C26.7733 27.68 25.0133 27.2 22.88 27.2C21.4933 27.2 20.1867 27.4667 18.96 28C17.7333 28.5333 16.64 29.28 15.68 30.24C14.7733 31.2 14.0533 32.3733 13.52 33.76C12.9867 35.1467 12.72 36.6933 12.72 38.4C12.72 40.1067 12.9867 41.6533 13.52 43.04C14.0533 44.4267 14.7733 45.6 15.68 46.56C16.64 47.52 17.7333 48.2667 18.96 48.8C20.1867 49.3333 21.4933 49.6 22.88 49.6C25.0667 49.6 26.9067 49.12 28.4 48.16C29.9467 47.1467 31.1733 45.7067 32.08 43.84L41.68 48Z" fill="black"/>
<path d="M66.2431 17.52C69.2831 17.52 72.0565 18.0533 74.5631 19.12C77.1231 20.1333 79.3098 21.5733 81.1231 23.44C82.9898 25.2533 84.4298 27.44 85.4431 30C86.5098 32.56 87.0431 35.36 87.0431 38.4C87.0431 41.44 86.5098 44.24 85.4431 46.8C84.4298 49.36 82.9898 51.5733 81.1231 53.44C79.3098 55.2533 77.1231 56.6933 74.5631 57.76C72.0565 58.7733 69.2831 59.28 66.2431 59.28C63.2031 59.28 60.4031 58.7733 57.8431 57.76C55.3365 56.6933 53.1498 55.2533 51.2831 53.44C49.4698 51.5733 48.0298 49.36 46.9631 46.8C45.9498 44.24 45.4431 41.44 45.4431 38.4C45.4431 35.36 45.9498 32.56 46.9631 30C48.0298 27.44 49.4698 25.2533 51.2831 23.44C53.1498 21.5733 55.3365 20.1333 57.8431 19.12C60.4031 18.0533 63.2031 17.52 66.2431 17.52ZM66.2431 49.6C67.5765 49.6 68.8565 49.36 70.0831 48.88C71.3631 48.3467 72.4831 47.6 73.4431 46.64C74.4031 45.68 75.1498 44.5067 75.6831 43.12C76.2698 41.7333 76.5631 40.16 76.5631 38.4C76.5631 36.64 76.2698 35.0667 75.6831 33.68C75.1498 32.2933 74.4031 31.12 73.4431 30.16C72.4831 29.2 71.3631 28.48 70.0831 28C68.8565 27.4667 67.5765 27.2 66.2431 27.2C64.8565 27.2 63.5498 27.4667 62.3231 28C61.0965 28.48 60.0031 29.2 59.0431 30.16C58.0831 31.12 57.3098 32.2933 56.7231 33.68C56.1898 35.0667 55.9231 36.64 55.9231 38.4C55.9231 40.16 56.1898 41.7333 56.7231 43.12C57.3098 44.5067 58.0831 45.68 59.0431 46.64C60.0031 47.6 61.0965 48.3467 62.3231 48.88C63.5498 49.36 64.8565 49.6 66.2431 49.6Z" fill="black"/>
<path d="M122.977 53.28H122.337C121.377 54.9333 119.884 56.3467 117.857 57.52C115.83 58.6933 113.324 59.28 110.337 59.28C107.83 59.28 105.43 58.7733 103.137 57.76C100.897 56.6933 98.8969 55.2533 97.1369 53.44C95.4302 51.5733 94.0702 49.36 93.0569 46.8C92.0435 44.24 91.5369 41.44 91.5369 38.4C91.5369 35.36 92.0435 32.56 93.0569 30C94.0702 27.44 95.4302 25.2533 97.1369 23.44C98.8969 21.5733 100.897 20.1333 103.137 19.12C105.43 18.0533 107.83 17.52 110.337 17.52C113.324 17.52 115.83 18.1067 117.857 19.28C119.884 20.4533 121.377 21.8667 122.337 23.52H122.977L122.337 17.92V0.720001H132.817V58H122.977V53.28ZM112.497 49.6C113.884 49.6 115.19 49.36 116.417 48.88C117.697 48.3467 118.817 47.6 119.777 46.64C120.737 45.68 121.51 44.5067 122.097 43.12C122.684 41.7333 122.977 40.16 122.977 38.4C122.977 36.64 122.684 35.0667 122.097 33.68C121.51 32.2933 120.737 31.12 119.777 30.16C118.817 29.2 117.697 28.48 116.417 28C115.19 27.4667 113.884 27.2 112.497 27.2C111.11 27.2 109.777 27.4667 108.497 28C107.27 28.5333 106.177 29.28 105.217 30.24C104.257 31.2 103.484 32.3733 102.897 33.76C102.31 35.1467 102.017 36.6933 102.017 38.4C102.017 40.1067 102.31 41.6533 102.897 43.04C103.484 44.4267 104.257 45.6 105.217 46.56C106.177 47.52 107.27 48.2667 108.497 48.8C109.777 49.3333 111.11 49.6 112.497 49.6Z" fill="black"/>
<path d="M178.475 48.56C176.662 51.76 174.208 54.3467 171.115 56.32C168.075 58.2933 164.342 59.28 159.915 59.28C156.928 59.28 154.155 58.7733 151.595 57.76C149.088 56.6933 146.902 55.2267 145.035 53.36C143.168 51.4933 141.702 49.3067 140.635 46.8C139.622 44.24 139.115 41.44 139.115 38.4C139.115 35.5733 139.622 32.9067 140.635 30.4C141.648 27.84 143.062 25.6267 144.875 23.76C146.688 21.84 148.822 20.32 151.275 19.2C153.782 18.08 156.528 17.52 159.515 17.52C162.662 17.52 165.462 18.0533 167.915 19.12C170.368 20.1333 172.422 21.5733 174.075 23.44C175.728 25.2533 176.982 27.4133 177.835 29.92C178.688 32.4267 179.115 35.1467 179.115 38.08C179.115 38.4533 179.115 38.7733 179.115 39.04C179.062 39.36 179.035 39.6533 179.035 39.92C178.982 40.1867 178.955 40.48 178.955 40.8H149.435C149.648 42.4 150.075 43.7867 150.715 44.96C151.408 46.08 152.235 47.04 153.195 47.84C154.208 48.5867 155.302 49.1467 156.475 49.52C157.648 49.84 158.848 50 160.075 50C162.475 50 164.448 49.4667 165.995 48.4C167.595 47.28 168.848 45.8933 169.755 44.24L178.475 48.56ZM168.955 33.36C168.902 32.6667 168.662 31.8933 168.235 31.04C167.862 30.1867 167.275 29.3867 166.475 28.64C165.728 27.8933 164.768 27.28 163.595 26.8C162.475 26.32 161.115 26.08 159.515 26.08C157.275 26.08 155.302 26.72 153.595 28C151.888 29.28 150.688 31.0667 149.995 33.36H168.955Z" fill="black"/>
<path d="M209.4 59.28C203.587 59.28 198.76 57.3067 194.92 53.36C191.133 49.3067 189.24 44.32 189.24 38.4C189.24 32.3733 191.133 27.3867 194.92 23.44C198.76 19.4933 203.587 17.52 209.4 17.52C213.4 17.52 216.893 18.5333 219.88 20.56C222.867 22.5333 225.107 25.28 226.6 28.8L219.88 31.6C217.8 26.6933 214.147 24.24 208.92 24.24C205.56 24.24 202.653 25.6 200.2 28.32C197.8 31.04 196.6 34.4 196.6 38.4C196.6 42.4 197.8 45.76 200.2 48.48C202.653 51.2 205.56 52.56 208.92 52.56C214.307 52.56 218.093 50.1067 220.28 45.2L226.84 48C225.4 51.52 223.133 54.2933 220.04 56.32C217 58.2933 213.453 59.28 209.4 59.28Z" fill="black"/>
<path d="M238.246 46C238.246 47.92 239.046 49.52 240.646 50.8C242.3 52.08 244.22 52.72 246.406 52.72C249.5 52.72 252.246 51.5733 254.646 49.28C257.1 46.9867 258.326 44.2933 258.326 41.2C256.033 39.3867 252.833 38.48 248.726 38.48C245.74 38.48 243.233 39.2 241.206 40.64C239.233 42.08 238.246 43.8667 238.246 46ZM247.766 17.52C253.206 17.52 257.5 18.9867 260.646 21.92C263.793 24.8 265.366 28.7733 265.366 33.84V58H258.326V52.56H258.006C254.966 57.04 250.913 59.28 245.846 59.28C241.526 59.28 237.9 58 234.966 55.44C232.086 52.88 230.646 49.68 230.646 45.84C230.646 41.7867 232.166 38.56 235.206 36.16C238.3 33.76 242.406 32.56 247.526 32.56C251.9 32.56 255.5 33.36 258.326 34.96V33.28C258.326 30.72 257.313 28.56 255.286 26.8C253.26 24.9867 250.886 24.08 248.166 24.08C244.06 24.08 240.806 25.8133 238.406 29.28L231.926 25.2C235.5 20.08 240.78 17.52 247.766 17.52Z" fill="black"/>
<path d="M273.668 18.8H280.708V24.24H281.027C282.147 22.32 283.854 20.72 286.148 19.44C288.494 18.16 290.921 17.52 293.427 17.52C298.227 17.52 301.907 18.9067 304.467 21.68C307.081 24.4 308.388 28.2933 308.388 33.36V58H301.028V33.84C300.868 27.44 297.641 24.24 291.348 24.24C288.414 24.24 285.961 25.44 283.988 27.84C282.014 30.1867 281.027 33.0133 281.027 36.32V58H273.668V18.8Z" fill="black"/>
<path d="M334.627 52.56C338.254 52.56 341.214 51.2533 343.507 48.64C345.907 46.0267 347.107 42.6133 347.107 38.4C347.107 34.2933 345.907 30.9067 343.507 28.24C341.16 25.5733 338.2 24.24 334.627 24.24C331.107 24.24 328.147 25.5733 325.747 28.24C323.347 30.9067 322.147 34.2933 322.147 38.4C322.147 42.56 323.347 45.9467 325.747 48.56C328.147 51.2267 331.107 52.56 334.627 52.56ZM333.427 59.28C328.307 59.28 323.907 57.2533 320.227 53.2C316.6 49.0933 314.787 44.16 314.787 38.4C314.787 32.64 316.6 27.7067 320.227 23.6C323.907 19.5467 328.307 17.52 333.427 17.52C336.307 17.52 338.92 18.1333 341.267 19.36C343.667 20.5867 345.507 22.2133 346.787 24.24H347.107L346.787 18.8V0.720001H354.147V58H347.107V52.56H346.787C345.507 54.5867 343.667 56.2133 341.267 57.44C338.92 58.6667 336.307 59.28 333.427 59.28Z" fill="black"/>
<path d="M398.161 18.8L373.601 75.28H366.001L375.121 55.52L358.961 18.8H366.961L378.641 46.96H378.801L390.161 18.8H398.161Z" fill="black"/>
<path d="M0 70H175V75H0V70Z" fill="black"/>
</svg>
